<svg id="Layer_1" data-name="Layer 1" xmlns="http://www.w3.org/2000/svg" width="256" height="256" viewBox="0 0 256 256"><title>sloth-bg</title><path d="M180.6-5.1A13.5,13.5,0,0,1,194.1,8.5,13.6,13.6,0,1,1,180.6-5.1ZM127-14.5c3.6-8.7,11.8-15.6,24.3-20.7,8.4-3.3,16.3-6.2,29.1-6.6h.3c12.8.4,20.8,3.3,29.2,6.6,12.5,5.1,20.6,12,24.2,20.7a24.8,24.8,0,0,1,.3,18.4.8.8,0,0,1-.2.4c-.9,1.6-23.2,37.5-53.6,37.5S127.9,5.9,126.9,4.3l-.2-.4A25.3,25.3,0,0,1,127-14.5Zm53.6,48.9c16.7,0,31.3-13.7,39.6-23.7l-8.3-4.5a9.1,9.1,0,0,1-4.3,1,9.8,9.8,0,0,1-9.9-9.8,9.8,9.8,0,0,1,9.9-9.8,9.7,9.7,0,0,1,9.7,8.9L227,1.7l.7-1a18.1,18.1,0,0,0-.5-12.5c-2.8-6.7-9.6-12.2-20.1-16.5-8-3.2-15-5.6-26.5-6.1s-18.9,3-26.5,6.1Q138.2-21.8,134-11.8A17.7,17.7,0,0,0,133.4.7l.7,1,9.7-5.2a9.7,9.7,0,0,1,9.8-8.9,9.8,9.8,0,0,1,9.8,9.8,9.8,9.8,0,0,1-9.8,9.8,8.8,8.8,0,0,1-4.3-1l-8.4,4.5C149.3,20.7,163.8,34.4,180.6,34.4Z" fill="#d8c2ab"/><path d="M180.6,250.9A13.6,13.6,0,1,1,167,264.5,13.5,13.5,0,0,1,180.6,250.9ZM127,241.5c3.6-8.7,11.8-15.6,24.3-20.7,8.4-3.3,16.3-6.2,29.1-6.6h.3c12.8.4,20.8,3.3,29.2,6.6,12.5,5.1,20.6,12,24.2,20.7a24.8,24.8,0,0,1,.3,18.4.8.8,0,0,1-.2.4c-.9,1.6-23.2,37.5-53.6,37.5s-52.7-35.9-53.7-37.5a.8.8,0,0,0-.2-.4A25.3,25.3,0,0,1,127,241.5Zm53.6,48.9c16.7,0,31.3-13.7,39.6-23.7l-8.3-4.5a9.1,9.1,0,0,1-4.3,1,9.8,9.8,0,1,1,0-19.6,9.7,9.7,0,0,1,9.7,8.9l9.7,5.2.7-1a18.1,18.1,0,0,0-.5-12.5c-2.8-6.7-9.6-12.2-20.1-16.5-8-3.2-15-5.6-26.5-6.1s-18.9,3-26.5,6.1q-15.9,6.5-20.1,16.5a17.7,17.7,0,0,0-.6,12.5l.7,1,9.7-5.2a9.8,9.8,0,1,1,9.8,10.7,8.8,8.8,0,0,1-4.3-1l-8.4,4.5C149.3,276.7,163.8,290.4,180.6,290.4Z" fill="#d8c2ab"/><path d="M75.4,122.9a13.6,13.6,0,1,1-13.5,13.6A13.6,13.6,0,0,1,75.4,122.9Zm-53.5-9.4q5.4-13.1,24.3-20.7c8.3-3.3,16.3-6.2,29.1-6.6h.3c12.8.4,20.7,3.3,29.1,6.6,12.5,5.1,20.7,12,24.3,20.7a25.3,25.3,0,0,1,.3,18.4.8.8,0,0,0-.2.4c-1,1.6-23.3,37.5-53.7,37.5s-52.7-35.9-53.6-37.5l-.2-.4A24.8,24.8,0,0,1,21.9,113.5Zm53.5,48.9c16.8,0,31.3-13.7,39.7-23.7l-8.4-4.5a8.8,8.8,0,0,1-4.3,1,9.8,9.8,0,1,1,9.8-10.7l9.7,5.2.7-1a17.8,17.8,0,0,0-.6-12.5q-4.2-10-20.1-16.5C94,96.5,87,94.1,75.4,93.6s-18.8,3-26.5,6.1c-10.5,4.3-17.3,9.8-20.1,16.5a18.1,18.1,0,0,0-.5,12.5l.7,1,9.7-5.2a9.7,9.7,0,0,1,9.7-8.9,9.8,9.8,0,1,1,0,19.6,9.1,9.1,0,0,1-4.3-1l-8.3,4.5C44.1,148.7,58.7,162.4,75.4,162.4Z" fill="#d8c2ab"/></svg>